<svg width="60" height="60" viewBox="0 0 60 60" fill="none" xmlns="http://www.w3.org/2000/svg">
<path d="M55 7.875H5C2.2375 7.875 0 10.1125 0 12.875V26.375C0 26.925 0.45 27.375 1 27.375H53.25C53.8 27.375 54.25 26.925 54.25 26.375C54.25 25.825 53.8 25.375 53.25 25.375H2V18.875H53.25C53.8 18.875 54.25 18.425 54.25 17.875C54.25 17.325 53.8 16.875 53.25 16.875H2V12.875C2 11.225 3.35 9.875 5 9.875H55C56.65 9.875 58 11.225 58 12.875V47.125C58 48.775 56.65 50.125 55 50.125H5C3.35 50.125 2 48.775 2 47.125V32.125C2 31.575 1.55 31.125 1 31.125C0.45 31.125 0 31.575 0 32.125V47.125C0 49.8875 2.2375 52.125 5 52.125H55C57.7625 52.125 60 49.8875 60 47.125V12.875C60 10.1125 57.7625 7.875 55 7.875ZM9.125 36.75H17.5C18.05 36.75 18.5 36.3 18.5 35.75C18.5 35.2 18.05 34.75 17.5 34.75H9.125C8.575 34.75 8.125 35.2 8.125 35.75C8.125 36.3 8.575 36.75 9.125 36.75ZM9.125 43H17.5C18.05 43 18.5 42.55 18.5 42C18.5 41.45 18.05 41 17.5 41H9.125C8.575 41 8.125 41.45 8.125 42C8.125 42.55 8.575 43 9.125 43Z" fill="white"/>
</svg>
