<svg width="18" height="19" viewBox="0 0 18 19" fill="none" xmlns="http://www.w3.org/2000/svg">
<g clip-path="url(#clip0_418_51)">
<path d="M13.4992 0.494945L11.165 0.491211C8.54265 0.491211 6.84797 2.22473 6.84797 4.90782V6.94417H4.50106C4.29826 6.94417 4.13403 7.10809 4.13403 7.31029V10.2607C4.13403 10.4629 4.29845 10.6267 4.50106 10.6267H6.84797V18.0716C6.84797 18.2738 7.01219 18.4375 7.21499 18.4375H10.277C10.4798 18.4375 10.6441 18.2736 10.6441 18.0716V10.6267H13.3881C13.5909 10.6267 13.7552 10.4629 13.7552 10.2607L13.7563 7.31029C13.7563 7.2132 13.7175 7.12023 13.6488 7.05152C13.5801 6.98282 13.4865 6.94417 13.3891 6.94417H10.6441V5.21793C10.6441 4.38823 10.8424 3.96703 11.9264 3.96703L13.4988 3.96647C13.7014 3.96647 13.8657 3.80255 13.8657 3.60053V0.86088C13.8657 0.659055 13.7016 0.495318 13.4992 0.494945Z" fill="white"/>
</g>
<defs>
<clipPath id="clip0_418_51">
<rect width="18" height="17.9463" fill="white" transform="translate(0 0.491211)"/>
</clipPath>
</defs>
</svg>
