<svg width="50" height="50" viewBox="0 0 50 50" fill="none" xmlns="http://www.w3.org/2000/svg">
<g clip-path="url(#clip0_5_783)">
<path d="M40.5739 43.4189C40.4989 42.8499 40.3738 42.3795 40.1913 41.9812C40.1892 41.9762 40.1868 41.9713 40.1845 41.9665C39.9659 41.5095 39.7175 41.1892 39.4024 40.9582C39.049 40.6992 38.6473 40.5679 38.2081 40.5679H31.3782V2.12227C31.3782 1.70859 31.2722 1.33975 31.0633 1.02676C30.8311 0.67832 30.4629 0.433887 29.9379 0.279883C29.5745 0.17002 29.0756 0.0956055 28.4132 0.0524414C27.8584 0.0162109 27.1398 0 26.083 0C25.3022 0 24.6853 0 24.1938 0.0128906C23.6795 0.0263672 23.256 0.0544922 22.94 0.0957031C22.5772 0.141016 22.2771 0.204395 22.0222 0.289258C22.0156 0.291406 22.0091 0.29375 22.0025 0.295996C21.7327 0.392285 21.5064 0.51084 21.3125 0.657422L11.0979 7.27051C11.0888 7.27646 11.0798 7.28252 11.0709 7.28877C10.7139 7.53721 10.448 7.73818 10.2329 7.9667C9.94893 8.25449 9.73984 8.59834 9.61123 8.98926C9.48223 9.33721 9.40107 9.7498 9.37002 10.2163C9.34355 10.615 9.33008 11.1282 9.33008 11.7417C9.33008 12.7339 9.37051 13.4927 9.45371 14.0614C9.5585 14.777 9.77783 15.3039 10.1243 15.672C10.1312 15.6792 10.1381 15.6863 10.145 15.6935C10.5738 16.1221 11.139 16.2914 11.8251 16.1968C11.8379 16.195 11.8506 16.193 11.8633 16.1907C12.2919 16.1142 12.8223 15.9232 13.4848 15.6069C13.5021 15.5987 13.519 15.5899 13.5357 15.5807L19.7553 12.1492L19.7556 21.6251C19.7556 22.1645 20.1929 22.6017 20.7321 22.6017C21.2714 22.6017 21.7087 22.1644 21.7087 21.6251L21.7084 10.495C21.7084 10.1495 21.5258 9.82969 21.2283 9.6541C20.9307 9.47842 20.5625 9.47305 20.2601 9.63994L12.6179 13.8563C12.0396 14.1309 11.7143 14.2301 11.5395 14.2642C11.5287 14.2655 11.5189 14.2664 11.5101 14.2671C11.4759 14.1919 11.4251 14.0443 11.3861 13.7784C11.3178 13.3109 11.2831 12.6256 11.2831 11.7415C11.2831 11.171 11.2951 10.7015 11.3188 10.3459C11.3423 9.99209 11.4009 9.77705 11.4458 9.65898C11.4522 9.64209 11.4582 9.6249 11.4638 9.60772C11.4993 9.496 11.5495 9.41182 11.6266 9.33486C11.6352 9.32627 11.6436 9.31748 11.6518 9.30859C11.7532 9.19932 11.9612 9.04854 12.1731 8.90078L22.4082 2.27441C22.4355 2.25674 22.4617 2.23779 22.487 2.21758C22.5042 2.20381 22.5479 2.17568 22.649 2.13877C22.778 2.09687 22.9574 2.06152 23.1873 2.03271C23.4418 1.99951 23.7978 1.97676 24.2449 1.96504C24.7107 1.95312 25.3163 1.95312 26.083 1.95312C27.0956 1.95312 27.775 1.96797 28.2859 2.00137C28.9508 2.04473 29.2533 2.11318 29.3744 2.1499C29.3781 2.15107 29.3817 2.15205 29.3855 2.15322C29.3998 2.15742 29.413 2.16143 29.425 2.16533V41.5443C29.425 42.0836 29.8623 42.5209 30.4016 42.5209H38.208C38.2217 42.5209 38.2291 42.5221 38.2301 42.5223C38.2316 42.5229 38.2378 42.5261 38.2476 42.5333C38.2502 42.5353 38.3136 42.5833 38.419 42.8018C38.5161 43.0166 38.5897 43.3099 38.637 43.6705C38.691 44.0915 38.7172 44.6356 38.7172 45.3342C38.7172 45.9685 38.683 46.5061 38.6158 46.932C38.5368 47.4322 38.4507 47.6765 38.3923 47.7932C38.3845 47.8088 38.3771 47.8247 38.37 47.8407C38.3093 47.9802 38.2557 48.0312 38.2564 48.0314C38.2524 48.0342 38.2486 48.0368 38.2447 48.0396C38.2373 48.045 38.235 48.0466 38.2207 48.0466H11.8415C11.8387 48.0448 11.8353 48.0426 11.8312 48.0397C11.8182 48.0257 11.7655 47.9641 11.6912 47.8087C11.6888 47.8036 11.6863 47.7985 11.6838 47.7936C11.6253 47.6766 11.5391 47.4321 11.4601 46.9319C11.3928 46.5059 11.3586 45.9684 11.3586 45.3342C11.3586 44.6358 11.3849 44.0916 11.4385 43.6737C11.4863 43.3099 11.5599 43.0166 11.6569 42.8018C11.7472 42.6147 11.8116 42.5422 11.8336 42.5209H20.7318C21.2712 42.5209 21.7084 42.0836 21.7084 41.5443V30.4144C21.7084 29.8751 21.2712 29.4378 20.7318 29.4378C20.1925 29.4378 19.7553 29.8751 19.7553 30.4144V40.5679H11.8175C11.3666 40.5679 10.9534 40.7133 10.6213 40.9888C10.3355 41.2174 10.0967 41.5374 9.89141 41.9667C9.88916 41.9716 9.88682 41.9764 9.88457 41.9813C9.70205 42.3796 9.57695 42.85 9.50166 43.4222C9.43613 43.9334 9.40557 44.541 9.40557 45.3343C9.40557 46.0806 9.44658 46.7029 9.53086 47.2367C9.62754 47.8486 9.75527 48.3008 9.93271 48.6589C10.1456 49.1018 10.3972 49.4207 10.7016 49.6333C11.0398 49.8732 11.4256 50 11.8176 50H38.2208C38.6374 50 39.0361 49.8732 39.3744 49.6333C39.6939 49.4103 39.9618 49.0685 40.1509 48.6432C40.3243 48.2878 40.4499 47.8398 40.5451 47.2368C40.6293 46.7029 40.6703 46.0807 40.6703 45.3344C40.6703 44.5409 40.6398 43.9333 40.5739 43.4189Z" fill="white"/>
<path d="M20.7327 26.9965C21.2721 26.9965 21.7093 26.5592 21.7093 26.0199C21.7093 25.4806 21.2721 25.0433 20.7327 25.0433H20.732C20.1927 25.0433 19.7559 25.4806 19.7559 26.0199C19.7559 26.5592 20.1934 26.9965 20.7327 26.9965Z" fill="white"/>
</g>
<defs>
<clipPath id="clip0_5_783">
<rect width="50" height="50" fill="white"/>
</clipPath>
</defs>
</svg>
