<svg width="18" height="19" viewBox="0 0 18 19" fill="none" xmlns="http://www.w3.org/2000/svg">
<path d="M15.3633 0.491211H2.63672C1.18295 0.491211 0 1.67063 0 3.12006V15.8086C0 17.2581 1.18295 18.4375 2.63672 18.4375H15.3633C16.817 18.4375 18 17.2581 18 15.8086V3.12006C18 1.67063 16.817 0.491211 15.3633 0.491211ZM9.03516 14.1612C6.41808 14.1612 4.28906 12.0386 4.28906 9.4293C4.28906 6.82003 6.41808 4.69737 9.03516 4.69737C11.6522 4.69737 13.7812 6.82003 13.7812 9.4293C13.7812 12.0386 11.6522 14.1612 9.03516 14.1612ZM14.3086 5.74891C13.4363 5.74891 12.7266 5.04131 12.7266 4.1716C12.7266 3.30189 13.4363 2.59429 14.3086 2.59429C15.1809 2.59429 15.8906 3.30189 15.8906 4.1716C15.8906 5.04131 15.1809 5.74891 14.3086 5.74891Z" fill="white"/>
<path d="M14.3086 3.64648C14.0176 3.64648 13.7812 3.88217 13.7812 4.17236C13.7812 4.46256 14.0176 4.69824 14.3086 4.69824C14.5996 4.69824 14.8359 4.46256 14.8359 4.17236C14.8359 3.88217 14.5996 3.64648 14.3086 3.64648Z" fill="white"/>
<path d="M9.03491 5.74902C6.99969 5.74902 5.34351 7.40039 5.34351 9.42969C5.34351 11.459 6.99969 13.1104 9.03491 13.1104C11.0701 13.1104 12.7263 11.459 12.7263 9.42969C12.7263 7.40039 11.0701 5.74902 9.03491 5.74902Z" fill="white"/>
</svg>
